HIERARCHY
ROOT Hips
{
	OFFSET 0.00 86.18 0.00
	CHANNELS 6 Xposition Yposition Zposition Yrotation Xrotation Zrotation
	JOINT RightUpLeg
	{
		OFFSET -9.25 0.00 0.00
		CHANNELS 6 Xposition Yposition Zposition Yrotation Xrotation Zrotation
		JOINT RightLeg
		{
			OFFSET 0.00 -42.00 0.00
			CHANNELS 6 Xposition Yposition Zposition Yrotation Xrotation Zrotation
			JOINT RightFoot
			{
				OFFSET 0.00 -42.00 0.00
				CHANNELS 6 Xposition Yposition Zposition Yrotation Xrotation Zrotation
				End Site
				{
					OFFSET 0 -1.14 11.36
				}
			}
		}
	}
	JOINT LeftUpLeg
	{
		OFFSET 9.25 0.00 0.00
		CHANNELS 6 Xposition Yposition Zposition Yrotation Xrotation Zrotation
		JOINT LeftLeg
		{
			OFFSET 0.00 -42.00 0.00
			CHANNELS 6 Xposition Yposition Zposition Yrotation Xrotation Zrotation
			JOINT LeftFoot
			{
				OFFSET 0.00 -42.00 0.00
				CHANNELS 6 Xposition Yposition Zposition Yrotation Xrotation Zrotation
				End Site
				{
					OFFSET 0 -1.14 11.36
				}
			}
		}
	}
	JOINT Spine
	{
		OFFSET 0.00 10.46 0.00
		CHANNELS 6 Xposition Yposition Zposition Yrotation Xrotation Zrotation
		JOINT Spine1
		{
			OFFSET 0.00 9.75 0.00
			CHANNELS 6 Xposition Yposition Zposition Yrotation Xrotation Zrotation
			JOINT Spine2
			{
				OFFSET 0.00 10.15 0.00
				CHANNELS 6 Xposition Yposition Zposition Yrotation Xrotation Zrotation
				JOINT Spine3
				{
					OFFSET 0.00 9.75 0.00
					CHANNELS 6 Xposition Yposition Zposition Yrotation Xrotation Zrotation
			 		JOINT Neck
					{
						OFFSET 0.00 10.42 0.00
						CHANNELS 6 Xposition Yposition Zposition Yrotation Xrotation Zrotation
						JOINT Head
						{
							OFFSET 0.00 9.50 0.00
							CHANNELS 6 Xposition Yposition Zposition Yrotation Xrotation Zrotation
							End Site
							{
								OFFSET 0 16.00 0
							}
						}    
					} 
					JOINT RightShoulder
	 					{
						OFFSET -3.20 6.94 0.00
						CHANNELS 6 Xposition Yposition Zposition Yrotation Xrotation Zrotation
						JOINT RightArm
						{
							OFFSET -16.00 0.00 0.00
							CHANNELS 6 Xposition Yposition Zposition Yrotation Xrotation Zrotation
							JOINT RightForeArm
							{
								OFFSET -26.50 0.00 0.00
								CHANNELS 6 Xposition Yposition Zposition Yrotation Xrotation Zrotation
								JOINT RightHand
								{
									OFFSET -26.00 0.00 0.00
									CHANNELS 6 Xposition Yposition Zposition Yrotation Xrotation Zrotation
									End Site
									{
										OFFSET -17.50 0 0
									}
								}
							}
						}	
					}
					JOINT LeftShoulder
					{
						OFFSET 3.20 6.94 0.00
						CHANNELS 6 Xposition Yposition Zposition Yrotation Xrotation Zrotation
						JOINT LeftArm
						{
							OFFSET 16.00 0.00 0.00
							CHANNELS 6 Xposition Yposition Zposition Yrotation Xrotation Zrotation
							JOINT LeftForeArm
							{
								OFFSET 26.50 0.00 0.00
								CHANNELS 6 Xposition Yposition Zposition Yrotation Xrotation Zrotation
								JOINT LeftHand
								{
									OFFSET 26.00 0.00 0.00
									CHANNELS 6 Xposition Yposition Zposition Yrotation Xrotation Zrotation
									End Site
									{
										OFFSET 17.50 0 0
									}
								}
							}
						}
					}     			
				}
			}
		} 
	} 
}
MOTION
Frames: 17
Frame Time: 0.010
0.08 92.98 -0.02 -95.52 -1.13 -2.82 -9.23 0.00 0.05 -49.72 -0.33 -5.58 0.11 -42.00 0.02 32.57 1.64 1.55 0.29 -43.04 0.34 -0.13 -2.79 0.15 9.24 -0.01 -0.01 7.66 1.43 5.93 -0.01 -42.00 0.01 -3.89 2.50 2.45 -0.03 -40.93 0.15 0.50 0.07 5.40 0.01 10.46 0.02 0.14 1.36 2.60 0.02 9.75 0.01 0.04 0.34 0.65 0.01 10.15 -0.00 0.08 0.56 1.08 0.01 9.75 -0.00 0.29 -0.42 -0.03 0.03 10.42 -0.01 0.29 -0.42 -0.03 0.09 9.50 0.00 5.29 -7.17 -0.90 -3.20 6.95 -0.01 2.30 3.67 2.87 -16.00 0.01 0.04 -2.77 0.07 80.25 -26.49 0.02 0.07 7.18 3.00 0.22 -26.00 0.01 0.04 12.06 3.95 -19.69 3.20 6.93 -0.01 -1.27 0.88 -8.74 16.01 -0.01 -0.00 -7.07 6.35 -75.62 26.50 0.01 -0.01 -8.86 2.62 -1.85 26.01 0.01 -0.03 -14.55 12.99 19.37 
0.08 92.98 -0.02 -95.52 -1.13 -2.82 -9.23 0.00 0.05 -49.72 -0.33 -5.58 0.11 -42.00 0.02 32.57 1.64 1.55 0.29 -43.04 0.34 -0.13 -2.79 0.15 9.24 -0.01 -0.01 7.66 1.43 5.93 -0.01 -42.00 0.01 -3.89 2.50 2.45 -0.03 -40.93 0.15 0.50 0.07 5.40 0.01 10.46 0.02 0.14 1.36 2.60 0.02 9.75 0.01 0.04 0.34 0.65 0.01 10.15 -0.00 0.08 0.56 1.08 0.01 9.75 -0.01 0.29 -0.42 -0.03 0.03 10.42 -0.01 0.29 -0.42 -0.03 0.09 9.50 0.00 5.29 -7.17 -0.90 -3.20 6.95 -0.02 2.30 3.67 2.87 -16.00 0.01 0.04 -2.77 0.07 80.25 -26.49 0.02 0.07 7.18 3.00 0.22 -26.00 0.01 0.04 12.06 3.95 -19.69 3.20 6.93 -0.01 -1.27 0.88 -8.74 16.01 -0.01 -0.00 -7.07 6.35 -75.62 26.50 0.01 -0.01 -8.86 2.62 -1.85 26.01 0.01 -0.03 -14.55 12.99 19.37 
0.07 92.98 -0.02 -95.52 -1.13 -2.82 -9.23 0.00 0.05 -49.72 -0.33 -5.58 0.11 -42.00 0.01 32.57 1.64 1.55 0.29 -43.04 0.34 -0.13 -2.79 0.15 9.24 -0.01 -0.01 7.66 1.43 5.93 -0.01 -42.00 0.01 -3.89 2.50 2.45 -0.03 -40.93 0.15 0.50 0.07 5.40 0.01 10.46 0.02 0.14 1.36 2.60 0.02 9.75 0.01 0.04 0.34 0.65 0.01 10.15 -0.00 0.08 0.56 1.08 0.01 9.75 -0.01 0.29 -0.42 -0.03 0.02 10.42 -0.01 0.29 -0.42 -0.03 0.09 9.50 -0.00 5.29 -7.17 -0.90 -3.20 6.95 -0.02 2.30 3.67 2.87 -16.00 0.01 0.03 -2.77 0.07 80.25 -26.49 0.02 0.07 7.18 3.00 0.22 -26.00 0.01 0.03 12.06 3.95 -19.69 3.20 6.94 -0.02 -1.27 0.88 -8.74 16.01 -0.01 -0.00 -7.07 6.35 -75.62 26.50 0.01 -0.01 -8.86 2.62 -1.85 26.01 0.01 -0.03 -14.55 12.99 19.37 
0.07 92.98 -0.02 -95.52 -1.13 -2.82 -9.23 0.00 0.05 -49.72 -0.33 -5.58 0.11 -42.00 0.01 32.57 1.64 1.55 0.29 -43.04 0.34 -0.13 -2.79 0.15 9.24 -0.01 -0.02 7.66 1.43 5.93 -0.01 -42.00 0.01 -3.89 2.50 2.45 -0.02 -40.93 0.15 0.50 0.07 5.40 0.01 10.46 0.02 0.14 1.36 2.60 0.02 9.75 0.01 0.04 0.34 0.65 0.01 10.15 -0.00 0.08 0.56 1.08 0.01 9.75 -0.01 0.29 -0.42 -0.03 0.02 10.42 -0.02 0.29 -0.42 -0.03 0.09 9.50 -0.00 5.29 -7.17 -0.90 -3.20 6.95 -0.02 2.30 3.67 2.87 -16.00 0.01 0.03 -2.77 0.07 80.25 -26.49 0.02 0.06 7.18 3.00 0.22 -26.01 0.01 0.03 12.05 3.95 -19.69 3.20 6.94 -0.02 -1.27 0.88 -8.74 16.01 -0.01 -0.01 -7.07 6.35 -75.62 26.50 0.01 -0.01 -8.86 2.62 -1.85 26.01 0.01 -0.03 -14.55 12.99 19.37 
0.07 92.98 -0.02 -95.50 -1.13 -2.81 -9.23 0.00 0.05 -49.74 -0.32 -5.61 0.11 -42.00 0.01 32.58 1.61 1.55 0.30 -43.03 0.34 -0.15 -2.77 0.16 9.24 -0.01 -0.04 7.55 1.37 5.90 -0.00 -42.00 -0.02 -3.80 2.58 2.45 -0.02 -40.93 0.15 0.49 0.08 5.40 0.01 10.46 0.02 0.13 1.37 2.59 0.02 9.75 0.01 0.04 0.34 0.65 0.01 10.15 -0.00 0.07 0.57 1.08 0.01 9.75 -0.01 0.29 -0.42 -0.03 0.01 10.42 -0.02 0.29 -0.42 -0.03 0.11 9.50 0.00 5.28 -7.17 -0.90 -3.20 6.95 -0.02 2.29 3.69 2.88 -16.00 0.01 0.03 -2.77 0.07 80.26 -26.49 0.02 0.06 7.22 2.98 0.23 -26.00 0.01 0.03 11.93 3.95 -19.62 3.20 6.94 -0.02 -1.25 0.89 -8.72 16.01 -0.01 -0.00 -7.12 6.36 -75.63 26.50 0.01 -0.01 -8.88 2.55 -1.84 26.01 0.01 -0.03 -14.60 12.98 19.42 
0.07 92.98 -0.01 -95.48 -1.14 -2.81 -9.23 0.00 0.05 -49.75 -0.31 -5.63 0.12 -42.00 0.01 32.58 1.60 1.55 0.32 -43.03 0.34 -0.19 -2.76 0.17 9.24 -0.01 -0.01 7.61 1.46 5.91 -0.00 -42.00 0.01 -3.88 2.48 2.45 -0.01 -40.93 0.16 0.48 0.07 5.41 0.01 10.46 0.02 0.12 1.38 2.58 0.02 9.75 0.01 0.03 0.34 0.64 0.01 10.15 -0.00 0.07 0.57 1.07 0.01 9.75 -0.01 0.22 -0.41 -0.05 0.01 10.41 -0.01 0.22 -0.41 -0.05 0.07 9.50 -0.01 4.09 -7.07 -1.10 -3.20 6.95 -0.02 2.38 3.68 2.92 -16.00 0.01 0.03 -2.79 0.06 80.26 -26.49 0.02 0.06 7.20 2.93 0.24 -26.00 0.01 0.04 11.80 3.95 -19.54 3.20 6.94 -0.02 -1.17 0.90 -8.69 16.01 -0.01 -0.00 -7.13 6.37 -75.63 26.50 0.01 -0.00 -8.90 2.51 -1.84 26.01 0.01 -0.03 -14.67 12.99 19.45 
0.06 92.98 -0.01 -95.46 -1.13 -2.80 -9.24 0.00 0.04 -49.75 -0.31 -5.61 0.10 -42.00 0.01 32.56 1.60 1.51 0.33 -43.03 0.35 -0.20 -2.76 0.17 9.24 -0.01 0.02 7.68 1.54 5.90 -0.01 -42.00 0.04 -3.96 2.38 2.45 -0.01 -40.93 0.16 0.47 0.09 5.40 0.01 10.46 0.02 0.10 1.38 2.57 0.02 9.75 0.01 0.03 0.34 0.64 0.01 10.15 -0.01 0.06 0.57 1.07 0.01 9.75 -0.01 0.19 -0.41 -0.05 0.02 10.41 -0.01 0.19 -0.41 -0.05 0.08 9.50 -0.01 3.65 -7.00 -1.15 -3.20 6.95 -0.02 2.42 3.68 2.91 -16.00 0.01 0.03 -2.81 0.05 80.28 -26.49 0.02 0.05 7.22 2.92 0.27 -26.00 0.02 0.04 11.64 3.95 -19.44 3.20 6.94 -0.02 -1.14 0.90 -8.69 16.01 -0.00 -0.00 -7.13 6.37 -75.63 26.50 0.01 -0.00 -8.92 2.50 -1.84 26.01 0.01 -0.03 -14.74 13.00 19.47 
0.06 92.98 -0.01 -95.42 -1.11 -2.80 -9.24 0.00 0.05 -49.78 -0.31 -5.62 0.10 -42.00 0.01 32.56 1.58 1.51 0.33 -43.03 0.35 -0.22 -2.76 0.18 9.24 -0.01 -0.02 7.55 1.44 5.88 -0.01 -42.00 0.00 -3.86 2.48 2.45 -0.00 -40.93 0.17 0.47 0.09 5.41 0.01 10.46 0.02 0.10 1.37 2.57 0.02 9.75 0.01 0.03 0.34 0.64 0.01 10.15 -0.01 0.06 0.57 1.07 0.01 9.75 -0.01 0.16 -0.40 -0.06 0.03 10.41 -0.01 0.16 -0.40 -0.06 0.09 9.50 -0.00 3.05 -6.90 -1.28 -3.20 6.95 -0.02 2.44 3.68 2.92 -16.00 0.01 0.02 -2.83 0.04 80.30 -26.49 0.02 0.05 7.21 2.90 0.28 -26.00 0.03 0.04 11.53 3.98 -19.33 3.20 6.94 -0.02 -1.11 0.91 -8.68 16.01 -0.00 -0.00 -7.14 6.35 -75.63 26.50 0.01 -0.01 -8.93 2.53 -1.84 26.01 0.02 -0.04 -14.81 13.01 19.48 
0.06 92.98 -0.00 -95.40 -1.12 -2.80 -9.24 0.00 0.05 -49.79 -0.31 -5.63 0.10 -42.00 0.01 32.55 1.57 1.52 0.33 -43.03 0.35 -0.22 -2.75 0.18 9.23 -0.01 -0.05 7.44 1.36 5.87 -0.01 -42.00 -0.03 -3.78 2.57 2.44 0.00 -40.93 0.17 0.47 0.09 5.42 0.02 10.46 0.02 0.10 1.37 2.57 0.02 9.75 0.01 0.03 0.34 0.64 0.01 10.15 -0.01 0.06 0.57 1.07 0.01 9.75 -0.01 0.13 -0.39 -0.07 0.04 10.41 -0.00 0.13 -0.39 -0.07 0.10 9.50 0.00 2.49 -6.77 -1.39 -3.20 6.95 -0.02 2.49 3.69 2.95 -16.00 0.01 0.02 -2.83 0.03 80.29 -26.50 0.03 0.05 7.18 2.89 0.30 -26.00 0.03 0.03 11.45 4.00 -19.24 3.20 6.94 -0.02 -1.07 0.91 -8.66 16.01 -0.01 0.00 -7.15 6.37 -75.64 26.50 0.01 -0.01 -8.95 2.56 -1.84 26.01 0.02 -0.04 -14.87 12.99 19.54 
0.06 92.98 0.00 -95.38 -1.11 -2.80 -9.24 0.00 0.04 -49.81 -0.32 -5.63 0.09 -42.00 0.00 32.55 1.58 1.53 0.33 -43.03 0.35 -0.22 -2.73 0.18 9.24 -0.01 0.00 7.60 1.49 5.87 -0.00 -42.00 0.02 -3.95 2.41 2.44 0.00 -40.93 0.17 0.49 0.10 5.43 0.02 10.46 0.02 0.10 1.37 2.57 0.02 9.75 0.01 0.03 0.34 0.64 0.02 10.15 -0.01 0.06 0.57 1.07 0.01 9.75 -0.01 0.09 -0.38 -0.08 0.05 10.41 0.01 0.09 -0.38 -0.08 0.10 9.50 0.01 1.87 -6.66 -1.55 -3.20 6.95 -0.02 2.51 3.69 2.97 -16.00 0.01 0.01 -2.80 0.00 80.28 -26.50 0.03 0.05 7.13 2.86 0.29 -26.00 0.03 0.04 11.39 4.03 -19.15 3.20 6.93 -0.01 -1.04 0.88 -8.65 16.02 -0.01 0.01 -7.17 6.39 -75.65 26.50 0.02 -0.01 -8.95 2.58 -1.83 26.01 0.02 -0.04 -14.95 13.01 19.57 
0.05 92.98 0.01 -95.36 -1.11 -2.80 -9.24 0.00 0.04 -49.82 -0.33 -5.63 0.09 -42.00 0.01 32.58 1.61 1.52 0.33 -43.03 0.37 -0.28 -2.76 0.19 9.24 -0.01 -0.07 7.40 1.31 5.85 0.00 -42.00 -0.05 -3.79 2.61 2.44 0.00 -40.93 0.17 0.49 0.10 5.44 0.02 10.46 0.02 0.11 1.38 2.58 0.02 9.75 0.01 0.03 0.34 0.64 0.02 10.15 -0.01 0.06 0.57 1.07 0.01 9.75 -0.01 0.06 -0.37 -0.09 0.06 10.41 0.01 0.06 -0.37 -0.09 0.09 9.50 0.01 1.28 -6.53 -1.71 -3.20 6.95 -0.02 2.51 3.67 2.97 -16.00 0.01 0.01 -2.75 -0.00 80.30 -26.50 0.03 0.05 7.10 2.83 0.27 -26.00 0.03 0.03 11.31 4.07 -19.07 3.20 6.94 -0.01 -1.05 0.87 -8.66 16.02 -0.00 0.01 -7.16 6.40 -75.67 26.50 0.03 -0.01 -8.96 2.60 -1.82 26.01 0.02 -0.04 -15.00 12.99 19.67 
0.05 92.98 0.02 -95.33 -1.11 -2.78 -9.24 0.01 0.03 -49.83 -0.34 -5.61 0.08 -42.00 0.00 32.58 1.63 1.49 0.33 -43.03 0.37 -0.27 -2.78 0.20 9.24 -0.01 -0.05 7.46 1.37 5.83 0.00 -42.00 -0.03 -3.88 2.53 2.43 0.00 -40.93 0.16 0.50 0.10 5.46 0.02 10.46 0.02 0.12 1.38 2.58 0.03 9.75 0.01 0.03 0.34 0.64 0.02 10.15 -0.01 0.07 0.57 1.07 0.01 9.75 -0.01 0.03 -0.36 -0.10 0.06 10.42 0.02 0.03 -0.36 -0.10 0.09 9.50 0.01 0.71 -6.43 -1.84 -3.20 6.95 -0.03 2.50 3.67 2.97 -16.00 0.01 0.01 -2.72 -0.02 80.31 -26.50 0.03 0.05 7.07 2.82 0.24 -26.00 0.03 0.03 11.24 4.11 -18.98 3.20 6.94 -0.01 -1.04 0.85 -8.67 16.02 -0.00 0.01 -7.17 6.41 -75.68 26.50 0.03 -0.01 -8.98 2.61 -1.83 26.01 0.02 -0.04 -15.04 12.98 19.76 
0.04 92.98 0.02 -95.30 -1.10 -2.78 -9.24 0.01 0.03 -49.86 -0.35 -5.60 0.07 -42.00 -0.00 32.58 1.64 1.49 0.32 -43.03 0.38 -0.27 -2.80 0.19 9.23 -0.01 -0.08 7.36 1.26 5.82 0.01 -42.00 -0.07 -3.84 2.64 2.41 0.00 -40.93 0.15 0.53 0.11 5.48 0.02 10.46 0.02 0.11 1.37 2.58 0.03 9.75 0.01 0.03 0.34 0.65 0.02 10.15 -0.01 0.06 0.57 1.07 0.01 9.75 -0.01 -0.00 -0.35 -0.11 0.07 10.42 0.02 -0.00 -0.35 -0.11 0.09 9.50 0.01 0.17 -6.35 -1.93 -3.20 6.96 -0.03 2.52 3.68 2.97 -16.00 0.01 0.01 -2.70 -0.04 80.31 -26.50 0.02 0.04 7.05 2.84 0.24 -26.00 0.02 0.03 11.15 4.14 -18.94 3.20 6.93 -0.01 -1.02 0.87 -8.66 16.02 -0.00 0.01 -7.17 6.42 -75.69 26.50 0.03 -0.01 -8.99 2.60 -1.84 26.01 0.02 -0.04 -15.08 12.98 19.84 
0.04 92.98 0.03 -95.28 -1.11 -2.77 -9.24 0.01 0.03 -49.87 -0.35 -5.63 0.07 -42.00 -0.01 32.58 1.64 1.50 0.32 -43.03 0.38 -0.27 -2.80 0.19 9.24 -0.01 0.01 7.62 1.50 5.83 0.01 -42.00 0.03 -4.11 2.37 2.40 0.00 -40.93 0.15 0.54 0.12 5.49 0.02 10.46 0.02 0.11 1.38 2.59 0.03 9.75 0.01 0.03 0.34 0.65 0.02 10.15 -0.01 0.06 0.57 1.08 0.01 9.75 -0.01 -0.03 -0.35 -0.11 0.07 10.42 0.02 -0.03 -0.35 -0.11 0.10 9.50 0.01 -0.37 -6.30 -2.00 -3.20 6.95 -0.02 2.52 3.67 2.96 -16.00 0.01 0.01 -2.68 -0.03 80.31 -26.50 0.02 0.05 7.02 2.83 0.24 -26.00 0.02 0.04 11.09 4.16 -18.91 3.20 6.94 -0.02 -1.03 0.88 -8.68 16.02 -0.00 0.00 -7.17 6.41 -75.69 26.50 0.04 -0.02 -9.00 2.59 -1.85 26.01 0.02 -0.04 -15.10 12.94 19.93 
0.03 92.98 0.04 -95.27 -1.10 -2.77 -9.24 0.00 0.04 -49.88 -0.35 -5.64 0.07 -42.00 -0.01 32.58 1.63 1.49 0.33 -43.03 0.39 -0.29 -2.78 0.20 9.24 -0.01 -0.03 7.50 1.40 5.82 0.01 -42.00 -0.01 -4.01 2.47 2.40 0.00 -40.93 0.14 0.54 0.12 5.49 0.02 10.46 0.02 0.10 1.37 2.59 0.03 9.75 0.01 0.03 0.34 0.65 0.02 10.15 -0.01 0.06 0.57 1.08 0.02 9.75 -0.01 -0.06 -0.34 -0.12 0.07 10.42 0.02 -0.06 -0.34 -0.12 0.10 9.50 0.01 -0.88 -6.28 -2.06 -3.20 6.95 -0.02 2.53 3.68 2.96 -16.00 0.01 0.02 -2.67 -0.03 80.30 -26.49 0.02 0.06 7.02 2.83 0.24 -26.00 0.02 0.04 11.01 4.19 -18.86 3.20 6.94 -0.02 -1.01 0.88 -8.69 16.02 -0.00 -0.00 -7.20 6.41 -75.69 26.50 0.04 -0.02 -8.99 2.58 -1.85 26.01 0.02 -0.04 -15.13 12.94 19.98 
0.02 92.98 0.04 -95.24 -1.10 -2.76 -9.24 0.00 0.04 -49.89 -0.35 -5.66 0.06 -42.00 -0.01 32.53 1.64 1.47 0.34 -43.03 0.40 -0.27 -2.80 0.21 9.25 -0.01 -0.03 7.46 1.40 5.79 0.01 -42.00 -0.01 -3.99 2.47 2.42 -0.00 -40.93 0.13 0.53 0.12 5.48 0.02 10.46 0.02 0.10 1.38 2.60 0.03 9.75 0.01 0.03 0.35 0.65 0.02 10.15 -0.01 0.06 0.57 1.08 0.02 9.75 -0.01 -0.09 -0.34 -0.12 0.07 10.42 0.01 -0.09 -0.34 -0.12 0.09 9.50 0.00 -1.42 -6.28 -2.12 -3.20 6.96 -0.02 2.54 3.68 2.97 -16.00 0.02 0.02 -2.67 -0.02 80.29 -26.49 0.02 0.06 7.04 2.81 0.23 -26.00 0.01 0.04 10.93 4.20 -18.84 3.20 6.94 -0.02 -0.99 0.88 -8.70 16.02 -0.00 -0.00 -7.22 6.40 -75.69 26.50 0.03 -0.02 -9.00 2.59 -1.85 26.01 0.02 -0.05 -15.16 12.96 19.97 
0.01 92.98 0.05 -95.22 -1.11 -2.75 -9.24 0.01 0.04 -49.90 -0.34 -5.68 0.06 -42.00 -0.01 32.54 1.66 1.45 0.36 -43.02 0.43 -0.28 -2.83 0.24 9.24 -0.01 -0.09 7.26 1.27 5.76 0.02 -42.00 -0.07 -3.83 2.62 2.42 -0.00 -40.93 0.11 0.53 0.13 5.49 0.02 10.46 0.02 0.09 1.38 2.60 0.03 9.75 0.01 0.03 0.35 0.65 0.02 10.15 -0.01 0.05 0.57 1.08 0.02 9.75 -0.01 -0.12 -0.34 -0.13 0.07 10.42 0.01 -0.12 -0.34 -0.13 0.09 9.50 -0.00 -1.96 -6.28 -2.20 -3.20 6.96 -0.03 2.58 3.68 2.99 -16.00 0.02 0.03 -2.69 0.00 80.27 -26.50 0.02 0.06 7.08 2.81 0.24 -26.00 0.01 0.04 10.87 4.19 -18.82 3.20 6.94 -0.02 -0.95 0.88 -8.70 16.02 -0.00 -0.00 -7.23 6.41 -75.68 26.50 0.03 -0.02 -9.01 2.63 -1.86 26.01 0.02 -0.05 -15.18 12.97 19.97 
